<svg id="Layer_1" data-name="Layer 1" xmlns="http://www.w3.org/2000/svg" viewBox="0 0 236 267"><defs><style>.cls-1{fill:#fff;}</style></defs><title>nomad-logo2</title><g id="_4dpvWp.tif" data-name="4dpvWp.tif"><path class="cls-1" d="M319,91V335H83q0-133.5,0-267H279c5.09,2,10,4.56,15.29,5.87,6,1.51,10.44,4.67,11,9.52a60.75,60.75,0,0,0-6.64,1.55,36.27,36.27,0,0,0-6.31,3c-22.52,13.13-46.77,20.19-72.73,22.86-32.63,3.36-63.39-1.24-92.1-17.47-7-3.93-13.57-8.45-20.57-12.3-6.18-3.4-10.91-.35-11,6.72a16,16,0,0,0,.52,4.44c3.7,13.12,6.55,26.58,11.41,39.27,12.89,33.59,36,57.58,70.13,70,5.48,2,7.78,4.52,7.12,10.31-.62,5.38.62,11.1-3.69,15.6-7.13,7.46-14.34,14.85-21.32,22.45-11,12-22.21,23.91-32.74,36.36-7.95,9.4-5.92,18.8,5,24a100.25,100.25,0,0,0,21.55,7.57c21.45,4.73,43.28,5.32,65.14,4.05,15.34-.89,30.53-2.82,44.7-9.48,10.06-4.73,14.21-14.34,5.3-24.53-14.24-16.29-27.37-33.55-41.66-49.8a38.14,38.14,0,0,1-10-26.72c0-4.16.6-6.54,5.5-7.52a85.41,85.41,0,0,0,47.36-27c21.57-23.9,31.91-53,37-84.24.42-2.59,1.29-3.56,3.86-3S316.39,90.51,319,91Z" transform="translate(-83 -68)"/><path d="M307.13,87.17c.54.83.6,2.76.18,5.35-5.11,31.25-15.45,60.34-37,84.24a85.41,85.41,0,0,1-47.36,27c-4.9,1-5.49,3.36-5.5,7.52a38.14,38.14,0,0,0,10,26.72c14.29,16.25,27.42,33.5,41.66,49.8,8.91,10.2,4.76,19.8-5.3,24.53-14.17,6.67-29.35,8.6-44.7,9.48-21.86,1.26-43.69.68-65.14-4.05a100.25,100.25,0,0,1-21.55-7.57c-10.93-5.24-13-14.65-5-24,10.53-12.45,21.71-24.35,32.74-36.36,7-7.6,14.19-15,21.32-22.45,4.31-4.5,3.07-10.22,3.69-15.6.67-5.79-1.64-8.31-7.12-10.31-34.13-12.45-57.24-36.44-70.13-70-4.86-12.68-7.71-26.14-11.41-39.27a16,16,0,0,1-.52-4.44c.07-7.07,4.79-10.12,11-6.72,7,3.84,13.62,8.36,20.57,12.3,28.71,16.24,59.47,20.83,92.1,17.47,26-2.67,50.21-9.73,72.73-22.86a36.27,36.27,0,0,1,6.31-3,10.29,10.29,0,0,1,6,.05A7,7,0,0,1,307.13,87.17Zm-124,87.71c.61-12,1-23,1.79-33.9.25-3.52-1-4.86-4.24-5.93-16.76-5.47-33.42-11.23-50.12-16.87-3.24-1.09-6.49-2.12-9.74-3.18C133.37,143.81,152.87,164.7,183.14,174.87Zm35,.76,2.05,1.05c24.63-13.89,49.79-27.19,61.92-56.3l-64,17.36Z" transform="translate(-83 -68)"/><path class="cls-1" d="M183.14,174.87c-30.26-10.17-49.77-31.06-62.3-59.87,3.25,1.06,6.51,2.08,9.74,3.18,16.7,5.64,33.36,11.4,50.12,16.87,3.26,1.06,4.48,2.41,4.24,5.93C184.16,151.91,183.74,162.87,183.14,174.87Z" transform="translate(-83 -68)"/><path class="cls-1" d="M218.16,175.64V137.74l64-17.36c-12.13,29.11-37.29,42.41-61.92,56.3Z" transform="translate(-83 -68)"/></g></svg>